<?xml version="1.0" encoding="UTF-8"?>
<svg width="24px" height="24px" viewBox="0 0 24 24" version="1.1" xmlns="http://www.w3.org/2000/svg" xmlns:xlink="http://www.w3.org/1999/xlink">
    <title>E948E6FF-DBAF-42C0-A51E-4D6EB41E2711@1.5x</title>
    <defs>
        <path d="M10.7265292,0.30780387 C12.1154749,-0.40264564 13.8117258,0.158529845 14.5152116,1.5612244 L14.5152116,1.5612244 L23.6958192,19.8666224 C23.8957949,20.265358 24,20.7060419 24,21.153005 C24,22.7253569 22.7378507,24 21.1809106,24 L21.1809106,24 L2.81969541,24 C2.37711335,24 1.94074891,23.8947634 1.54592162,23.6928082 C0.15697597,22.9823587 -0.398698996,21.2693169 0.304786844,19.8666224 L0.304786844,19.8666224 L9.48539446,1.5612244 C9.75649037,1.02068082 10.1912839,0.581583304 10.7265292,0.30780387 Z M12.8386059,2.41881282 C12.6041106,1.95124797 12.0386936,1.76418947 11.5757118,2.00100598 C11.3972967,2.09226579 11.2523655,2.23863163 11.1620002,2.41881282 L11.1620002,2.41881282 L1.98139256,20.7242108 C1.74689728,21.1917757 1.93212227,21.7627896 2.39510415,21.9996061 C2.52671325,22.0669245 2.67216806,22.1020034 2.81969541,22.1020034 L2.81969541,22.1020034 L21.1809106,22.1020034 C21.6998907,22.1020034 22.1206071,21.6771223 22.1206071,21.153005 C22.1206071,21.0040173 22.0858721,20.8571227 22.0192135,20.7242108 L22.0192135,20.7242108 Z M12.0594896,16.1698105 C13.016122,16.1698105 13.7893854,17.0902403 13.7893854,17.9168301 C13.7893854,18.7449174 13.016122,19.6638498 12.0594896,19.6638498 C11.1028573,19.6638498 10.3295939,18.7449174 10.3295939,17.9168301 C10.3295939,17.0887428 11.1028573,16.1698105 12.0594896,16.1698105 Z M12.0594896,7.73974744 C13.0148847,7.73974744 13.7893854,8.51424815 13.7893854,9.46964318 L13.7893854,12.9979303 C13.7893854,13.9533253 13.0148847,14.727826 12.0594896,14.727826 C11.1040946,14.727826 10.3295939,13.9533253 10.3295939,12.9979303 L10.3295939,9.46964318 C10.3295939,8.51424815 11.1040946,7.73974744 12.0594896,7.73974744 Z" id="path-1"></path>
    </defs>
    <g id="Selected---use-these" stroke="none" stroke-width="1" fill="none" fill-rule="evenodd">
        <g id="Home-Page" transform="translate(-110.000000, -183.000000)">
            <g id="alert-bar" transform="translate(95.000000, 170.000000)">
                <g id="icons/x" transform="translate(15.000000, 13.000000)">
                    <mask id="mask-2" fill="white">
                        <use xlink:href="#path-1"></use>
                    </mask>
                    <use id="Combined-Shape" fill="#C45151" xlink:href="#path-1"></use>
                    <g id="color/primary/blue" mask="url(#mask-2)" fill="#FFFFFF">
                        <g transform="translate(-131.000000, -91.000000)" id="Rectangle-Copy-5">
                            <rect x="0" y="0" width="287" height="205"></rect>
                        </g>
                    </g>
                </g>
            </g>
        </g>
    </g>
</svg>